<?xml version="1.0" standalone="no"?><!DOCTYPE svg PUBLIC "-//W3C//DTD SVG 1.1//EN" "http://www.w3.org/Graphics/SVG/1.1/DTD/svg11.dtd"><svg t="1514183242887" class="icon" style="" viewBox="0 0 1024 1024" version="1.1" xmlns="http://www.w3.org/2000/svg" p-id="3982" xmlns:xlink="http://www.w3.org/1999/xlink" width="200" height="200"><defs><style type="text/css"></style></defs><path d="M244.067 600.279c21.876-18.893 32.815-43.586 32.815-74.081 0-24.526-7.21-44.455-21.628-59.787-14.418-15.327-33.645-24.4-57.673-27.22v-0.994c19.222-6.297 34.305-16.905 45.244-31.819 10.939-14.915 16.407-32.481 16.407-52.702 0-24.195-9.035-43.834-27.098-58.916-18.066-15.078-42.51-22.622-73.334-22.622h-101.427v356.481h103.911c33.311 0 60.905-9.446 82.782-28.339zM99.137 309.923h47.979c45.573 0 68.363 17.321 68.363 51.955 0 20.054-6.549 35.591-19.638 46.611-13.094 11.023-31.073 16.532-53.945 16.532h-42.758v-115.1zM99.137 462.559h47.979c57.339 0 86.013 21.049 86.013 63.142 0 20.221-6.754 36.131-20.261 47.73-13.508 11.602-32.527 17.402-57.052 17.402h-56.678v-128.274z" fill="#2d8cf0" p-id="3983"></path><path d="M343.753 271.402h40.768v357.217h-40.768v-357.217z" fill="#2d8cf0" p-id="3984"></path><path d="M665.802 592.46c22.953-24.444 34.43-56.965 34.43-97.572 0-41.429-10.65-73.831-31.943-97.199-21.298-23.367-50.923-35.051-88.873-35.051-39.774 0-71.345 12.018-94.713 36.046-23.367 24.032-35.051 57.424-35.051 100.182 0 39.278 11.226 70.811 33.683 94.59 22.454 23.783 52.493 35.674 90.115 35.674 38.612 0 69.396-12.221 92.351-36.668zM491.415 497.374c0-31.323 7.62-55.89 22.869-73.708 15.247-17.813 35.961-26.724 62.148-26.724 26.352 0 46.611 8.619 60.782 25.854 14.17 17.238 21.255 41.763 21.255 73.583 0 31.489-7.085 55.77-21.255 72.837-14.17 17.072-34.43 25.605-60.782 25.605-25.854 0-46.486-8.702-61.9-26.102-15.412-17.401-23.119-41.181-23.119-71.345z" fill="#2d8cf0" p-id="3985"></path><path d="M982.633 602.777v-234.174h-40.77v35.3h-0.993c-16.575-27.508-42.012-41.266-76.319-41.266-36.131 0-64.595 12.764-85.39 38.283-20.801 25.523-31.199 59.91-31.199 103.166 0 38.121 9.653 68.486 28.961 91.109 19.305 22.622 44.784 33.933 76.442 33.933 38.944 0 68.113-16.24 87.504-48.724h0.993v27.842c0 26.113-4.834 47.083-14.458 62.961l-20.611 21.805c-0.294 0.199-0.582 0.405-0.881 0.601-6.448 3.983-52.079 29.547-117.396-0.506-70.585-32.476-171.005-35.136-195.747 49.877l29.108 22.433c0 0 0-40.022 45.116-56.031 33.514-11.892 69.998 3.139 98.865 15.529v0.172c8.286 4.203 17.076 7.647 26.349 10.369 0.153 0.049 0.308 0.1 0.46 0.148 1.297 0.407 2.694 0.786 4.17 1.137 15.804 4.151 32.982 6.244 51.554 6.244 89.495-0.002 134.241-46.737 134.241-140.208zM920.361 570.46c-14.336 16.244-32.938 24.362-55.809 24.362-22.54 0-40.644-8.491-54.318-25.482-13.671-16.987-20.509-39.65-20.509-67.99 0-32.977 7.123-58.625 21.378-76.939 14.252-18.31 33.971-27.47 59.165-27.47 20.385 0 37.413 7.209 51.086 21.628 13.673 14.418 20.509 31.739 20.509 51.955v37.538c0 25.356-7.169 46.158-21.503 62.397z" fill="#2d8cf0" p-id="3986"></path></svg>